<svg width="554" height="554" xmlns="http://www.w3.org/2000/svg" xmlns:xlink="http://www.w3.org/1999/xlink" xml:space="preserve" overflow="hidden"><defs><clipPath id="clip0"><rect x="280" y="0" width="554" height="554"/></clipPath></defs><g clip-path="url(#clip0)" transform="translate(-280 0)"><path d="M418.5 92.4395 418.5 461.667C418.5 465.415 419.405 467.465 420.168 468.61 420.98 469.829 422.145 470.785 423.661 471.542 425.223 472.322 426.924 472.77 428.332 473.005 429.008 473.121 429.547 473.167 429.872 473.19 430.006 473.199 430.099 473.208 430.144 473.208L683.853 473.208C683.9 473.208 683.992 473.199 684.125 473.19 684.452 473.167 684.989 473.121 685.667 473.005 687.076 472.77 688.778 472.322 690.338 471.542 691.855 470.785 693.02 469.829 693.831 468.61 694.594 467.465 695.5 465.415 695.5 461.667L695.5 173.125 614.708 173.125C608.335 173.125 603.166 167.958 603.166 161.583L603.166 80.7917 430.041 80.7917C426.29 80.7917 424.243 81.697 423.098 82.4597 421.881 83.2713 420.925 84.4361 420.166 85.9531 419.385 87.5145 418.938 89.2152 418.703 90.6238 418.59 91.2997 418.539 91.8389 418.516 92.1639 418.505 92.2992 418.501 92.391 418.5 92.4377L418.5 92.4395ZM626.25 97.1157 679.175 150.041 626.25 150.041 626.25 97.1157ZM707.042 161.583C718.583 161.583 718.583 161.585 718.583 161.587L718.583 461.665C718.583 469.455 716.603 476.066 713.038 481.412 709.521 486.689 704.915 490.059 700.661 492.187 696.45 494.293 692.381 495.285 689.462 495.775 687.974 496.019 686.71 496.149 685.772 496.218 685.301 496.25 684.907 496.269 684.602 496.278L684.21 496.287 684.066 496.292 683.981 496.292C683.976 496.292 683.958 496.292 683.958 484.75L683.958 496.292 430.041 496.292 430.041 484.75C430.041 496.292 430.047 496.292 430.041 496.292L429.933 496.292 429.789 496.287 429.398 496.278C429.092 496.269 428.698 496.25 428.227 496.218 427.289 496.149 426.025 496.019 424.537 495.775 421.618 495.285 417.547 494.293 413.338 492.187 409.084 490.059 404.478 486.689 400.961 481.412 397.396 476.066 395.416 469.455 395.416 461.665L395.416 92.2258 395.418 92.0813 395.428 91.6902C395.437 91.3851 395.457 90.9903 395.49 90.5194 395.557 89.5818 395.686 88.3178 395.933 86.8298 396.42 83.9102 397.416 79.8397 399.52 75.6307 401.646 71.3764 405.019 66.7709 410.294 63.2539 415.641 59.6889 422.25 57.7083 430.041 57.7083L614.707 57.7083C617.768 57.7083 620.705 58.9239 622.872 61.0896L715.205 153.423C717.367 155.587 718.584 158.525 718.584 161.587L707.042 161.583ZM464.667 253.916C464.667 247.543 469.833 242.375 476.208 242.375L637.792 242.375C644.165 242.375 649.333 247.543 649.333 253.916 649.333 260.29 644.165 265.458 637.792 265.458L476.208 265.458C469.833 265.458 464.667 260.29 464.667 253.916ZM464.667 323.166C464.667 316.793 469.833 311.625 476.208 311.625L637.792 311.625C644.165 311.625 649.333 316.793 649.333 323.166 649.333 329.54 644.165 334.708 637.792 334.708L476.208 334.708C469.833 334.708 464.667 329.54 464.667 323.166ZM464.667 392.416C464.667 386.043 469.833 380.875 476.208 380.875L637.792 380.875C644.165 380.875 649.333 386.043 649.333 392.416 649.333 398.79 644.165 403.958 637.792 403.958L476.208 403.958C469.833 403.958 464.667 398.79 464.667 392.416Z" stroke="#FFFFFF" stroke-width="2.30833" stroke-linejoin="round" stroke-miterlimit="2" fill="#5A5AA8" fill-rule="evenodd"/></g></svg>