<svg width="720" height="720" xmlns="http://www.w3.org/2000/svg" xmlns:xlink="http://www.w3.org/1999/xlink" xml:space="preserve" overflow="hidden"><defs><clipPath id="clip0"><rect x="280" y="0" width="720" height="720"/></clipPath></defs><g clip-path="url(#clip0)" transform="translate(-280 0)"><path d="M650.8 487.95 721.312 487.95C768.168 442.052 802 362.568 802 300.558 802 211.086 729.472 138.558 640 138.558 550.528 138.558 478 211.086 478 300.558 478 362.562 511.835 442.05 558.688 487.95L629.2 487.95 629.2 397.752C629.2 393.667 624.44 384.35 620.629 380.79 617.918 378.254 615.545 376.452 613.6 375.376 613.005 375.046 612.513 374.816 612.126 374.661 603.126 392.038 578.619 404.443 555.33 400.337 535.799 396.892 520.621 381.052 509.324 354.315L506.603 347.877 511.361 342.758C531.122 321.5 550.804 311.804 570.332 315.25 591.431 318.969 609.843 335.792 614.477 353.045 619.335 353.767 624.182 356.078 629.2 359.807L629.2 320.879C611.711 313.82 596.854 292.867 596.854 270.409 596.854 250.576 609.819 232.879 634.188 217.11L640.054 213.313 645.923 217.11C670.29 232.879 683.254 250.576 683.254 270.409 683.254 293.096 668.259 315.372 650.8 321.641L650.8 359.807C656.092 355.874 661.194 353.519 666.318 352.942 671.418 335.524 688.722 318.944 709.668 315.25 729.196 311.805 748.879 321.501 768.639 342.759L773.397 347.878 770.676 354.316C759.379 381.053 744.201 396.892 724.67 400.337 701.241 404.467 675.395 392.282 667.349 374.889 667.07 375.02 666.753 375.18 666.4 375.377 664.454 376.453 662.082 378.255 659.371 380.791 655.56 384.351 650.8 393.667 650.8 397.753L650.8 487.95ZM712 509.55 568 509.55 568 559.76C568 581.63 585.731 599.36 607.6 599.36L672.4 599.36C694.269 599.36 712 581.63 712 559.76L712 509.55ZM456.4 300.558C456.4 199.158 538.6 116.958 640 116.958 741.4 116.958 823.6 199.158 823.6 300.558 823.6 369.588 786.119 456.498 733.6 506.094L733.6 559.759C733.6 593.558 706.199 620.958 672.4 620.958L607.6 620.958C573.801 620.958 546.4 593.558 546.4 559.759L546.4 506.094C493.881 456.498 456.4 369.594 456.4 300.558ZM559.078 379.062C574.582 381.795 591.391 371.909 593.862 362.393 595.809 354.884 582.495 339.324 566.58 336.518 556.779 334.789 545.32 339.708 532.16 352.381 540.192 368.792 549.276 377.333 559.078 379.063L559.078 379.062ZM713.416 336.518C697.912 339.251 685.497 354.289 686.432 364.079 687.171 371.799 705.002 381.868 720.918 379.063 730.72 377.333 739.805 368.792 747.836 352.381 734.676 339.709 723.218 334.789 713.416 336.518ZM618.454 270.404C618.454 286.145 631.108 300.983 640.91 301.764 648.642 302.378 661.654 286.565 661.654 270.404 661.654 260.45 654.822 250.021 640.054 239.261 625.289 250.021 618.454 260.45 618.454 270.404Z" stroke="#FFFFFF" stroke-width="3" stroke-linejoin="round" stroke-miterlimit="2" fill="#5A5AA8"/></g></svg>